<?xml version="1.0"?>
<svg xmlns="http://www.w3.org/2000/svg" xmlns:xlink="http://www.w3.org/1999/xlink" xmlns:svgjs="http://svgjs.com/svgjs" version="1.1" width="512" height="512" x="0" y="0" viewBox="0 0 150 150" style="enable-background:new 0 0 512 512" xml:space="preserve" class=""><g><path xmlns="http://www.w3.org/2000/svg" d="m115.736 140h-81.472a24.292 24.292 0 0 1 -24.264-24.264v-81.472a24.292 24.292 0 0 1 24.264-24.264h81.472a24.292 24.292 0 0 1 24.264 24.264v81.472a24.292 24.292 0 0 1 -24.264 24.264zm-81.472-128a22.288 22.288 0 0 0 -22.264 22.264v81.472a22.288 22.288 0 0 0 22.264 22.264h81.472a22.289 22.289 0 0 0 22.264-22.264v-81.472a22.289 22.289 0 0 0 -22.264-22.264z" fill="#ffffff" data-original="#000000" style=""/><path xmlns="http://www.w3.org/2000/svg" d="m38.667 112.333a1 1 0 0 1 -.708-1.707l72.667-72.666a1 1 0 0 1 1.414 1.414l-72.666 72.666a1 1 0 0 1 -.707.293z" fill="#ffffff" data-original="#000000" style=""/><path xmlns="http://www.w3.org/2000/svg" d="m111.333 112.333a1 1 0 0 1 -.707-.293l-72.667-72.666a1 1 0 1 1 1.415-1.414l72.666 72.666a1 1 0 0 1 -.707 1.707z" fill="#ffffff" data-original="#000000" style=""/></g></svg>
